<svg width="82" height="91" viewBox="0 0 82 91" fill="none" xmlns="http://www.w3.org/2000/svg">
<mask id="mask0_16_85" style="mask-type:alpha" maskUnits="userSpaceOnUse" x="0" y="0" width="82" height="91">
<rect width="82" height="91" fill="#D9D9D9"/>
</mask>
<g mask="url(#mask0_16_85)">
<path d="M60.7454 56.3254C60.7454 56.3254 66.1707 58.3897 68.0831 63.1915C69.9955 67.9934 77.9207 83.4441 78.4362 88.5317C79.3754 97.7918 75.143 102.33 73.0628 102.668C68.8664 103.347 68.3668 96.4489 68.3668 96.4489L60.7454 56.3254Z" fill="#F9F9F9" stroke="#383838" stroke-width="1.44826" stroke-linecap="round" stroke-linejoin="round"/>
<path d="M80.5069 36.361C81.6355 34.0823 77.8759 30.6186 74.5476 29.3867L71.5987 39.5919C73.2502 39.785 79.2483 38.902 80.5069 36.361Z" fill="#8C8885" stroke="#383838" stroke-width="1.08619" stroke-linecap="round" stroke-linejoin="round"/>
<path d="M73.3661 34.1919C74.0594 33.7715 75.9687 33.7103 77.0267 34.2343C78.1954 34.8132 78.0841 35.5566 78.1664 35.7362" stroke="#383838" stroke-width="1.08619" stroke-linecap="round" stroke-linejoin="round"/>
<path d="M21.317 24.4153C22.0199 21.9715 27.1317 21.9483 30.4203 23.2826L25.7175 32.8076C24.3676 31.8367 20.5333 27.1404 21.317 24.4153Z" fill="#8C8885" stroke="#383838" stroke-width="1.08619" stroke-linecap="round" stroke-linejoin="round"/>
<path d="M28.0531 27.6279C27.8245 26.85 26.4558 25.5175 25.3211 25.1911C24.0676 24.8306 23.6487 25.4547 23.4668 25.5319" stroke="#383838" stroke-width="1.08619" stroke-linecap="round" stroke-linejoin="round"/>
<path d="M74.4038 131.617C74.2739 130.326 72.4674 127.486 72.4055 125.098C72.3435 122.71 71.0067 110.91 71.0067 110.91C71.0067 110.91 67.5636 80.1909 65.8451 68.7667C64.1765 57.6962 59.8622 55.1504 59.5385 53.1502C59.2148 51.1499 64.1166 47.8087 64.1166 47.8087L49.1514 48.9138L34.1863 47.8087C34.1863 47.8087 39.0861 51.1499 38.7644 53.1502C38.4426 55.1504 34.1264 57.6962 32.4598 68.7667C30.7393 80.1909 27.2962 110.91 27.2962 110.91C27.2962 110.91 25.9694 122.7 25.8974 125.098C25.8255 127.496 24.027 130.326 23.8992 131.617C23.7713 132.908 24.1569 134.974 24.1569 134.974H41.2602C41.2602 134.974 42.0995 132.392 41.46 130.004C40.8206 127.616 40.9425 128.132 41.3961 126.841C41.8497 125.55 42.3833 123.31 44.0139 119.807C45.4326 116.755 46.4118 112.515 46.4118 112.515C47.232 113.045 48.1871 113.328 49.1634 113.33C50.8919 113.33 51.9171 112.515 51.9171 112.515C51.9171 112.515 52.8842 116.755 54.305 119.807C55.9336 123.31 56.4712 125.55 56.9228 126.841C57.3744 128.132 57.5023 127.616 56.8568 130.004C56.2114 132.392 57.0566 134.974 57.0566 134.974H74.1599C74.1599 134.974 74.5316 132.908 74.4038 131.617Z" fill="#F9F9F9" stroke="#383838" stroke-width="1.44826" stroke-linecap="round" stroke-linejoin="round"/>
<path d="M32.5359 65.4676C32.5359 65.4676 21.3455 57.4485 17.9484 53.5478C10.4549 44.9272 6.60019 37.6675 5.69896 32.6338C3.94047 22.8422 12.3992 22.0589 14.6073 22.2427C18.7757 22.5724 21.0378 28.6552 21.0378 28.6552C22.4307 34.2307 24.2341 39.6956 26.4331 45.0052C27.5662 47.6988 34.746 54.7967 34.746 54.7967L32.5359 65.4676Z" fill="#F9F9F9" stroke="#383838" stroke-width="1.44826" stroke-linecap="round" stroke-linejoin="round"/>
<path d="M18.2064 26.8787C18.2064 26.8787 18.6221 25.7857 20.5104 25.2921C22.3349 24.8165 24.0494 26.491 23.8396 28.1056C23.6297 29.7203 21.1884 31.7894 21.1884 31.7894" fill="#F9F9F9"/>
<path d="M18.2064 26.8787C18.2064 26.8787 18.6221 25.7857 20.5104 25.2921C22.3349 24.8165 24.0494 26.491 23.8396 28.1056C23.6297 29.7203 21.1884 31.7894 21.1884 31.7894" stroke="#383838" stroke-width="1.44826" stroke-linecap="round" stroke-linejoin="round"/>
<path d="M67.3741 45.69C67.8444 41.3107 59.8605 36.862 49.5413 35.7538C39.2222 34.6455 30.4756 37.2973 30.0053 41.6767C29.535 46.056 37.519 50.5046 47.8381 51.6129C58.1572 52.7211 66.9038 50.0694 67.3741 45.69Z" fill="#F9F9F9"/>
<path d="M61.2711 51.046C66.9962 48.75 73.019 42.9849 73.5605 37.9332C73.8025 35.4968 73.3268 33.0428 72.1918 30.8733C72.2737 30.4397 72.3396 30.0061 72.3916 29.5724C73.5026 19.2313 64.2925 12.3113 52.1529 11.0084C40.0134 9.70551 29.5464 14.5134 28.4373 24.8545C28.3894 25.2881 28.3634 25.7257 28.3494 26.1654C26.7806 28.0456 25.7951 30.3431 25.5139 32.7757C24.9624 37.9093 29.6263 44.8053 35.2215 48.5941" fill="#F9F9F9"/>
<path d="M61.2711 51.046C66.9962 48.7499 73.019 42.9849 73.5605 37.9332C73.8025 35.4968 73.3268 33.0428 72.1918 30.8733C72.2737 30.4397 72.3396 30.0061 72.3916 29.5724C73.5026 19.2313 64.2925 12.3113 52.1529 11.0084C40.0134 9.70551 29.5464 14.5134 28.4373 24.8545C28.3894 25.2881 28.3634 25.7257 28.3494 26.1654C26.7806 28.0456 25.7951 30.3431 25.5139 32.7757C24.9624 37.9093 29.6263 44.8053 35.2215 48.5941" stroke="#383838" stroke-width="1.44826" stroke-linecap="round" stroke-linejoin="round"/>
<path d="M29.7102 22.6883C29.7102 22.6883 26.9126 23.3737 26.0354 24.233C23.4056 26.7948 26.465 27.9818 26.465 27.9818C26.465 27.9818 24.4387 31.0312 24.3988 34.76C24.3748 36.8102 26.2952 37.3457 26.2952 37.3457C26.2952 37.3457 25.9355 41.6121 27.1864 43.3406C28.4613 45.111 31.2069 43.7882 31.2069 43.7882" fill="#F9F9F9"/>
<path d="M29.7102 22.6883C29.7102 22.6883 26.9126 23.3737 26.0354 24.233C23.4056 26.7948 26.465 27.9818 26.465 27.9818C26.465 27.9818 24.4387 31.0312 24.3988 34.76C24.3748 36.8102 26.2952 37.3457 26.2952 37.3457C26.2952 37.3457 25.9355 41.6121 27.1864 43.3406C28.4613 45.111 31.2069 43.7882 31.2069 43.7882" stroke="#383838" stroke-width="1.44826" stroke-linecap="round" stroke-linejoin="round"/>
<path d="M71.5148 27.1765C71.5148 27.1765 74.1005 28.4394 74.7799 29.4665C76.8062 32.5279 73.563 33.0375 73.563 33.0375C73.563 33.0375 74.8978 36.4485 74.1465 40.0994C73.7328 42.0977 71.7486 42.2236 71.7486 42.2236C71.7486 42.2236 71.1931 46.4699 69.6024 47.9027C67.9798 49.3634 65.5779 47.487 65.5779 47.487" fill="#F9F9F9"/>
<path d="M71.5148 27.1765C71.5148 27.1765 74.1005 28.4394 74.7799 29.4665C76.8062 32.5279 73.563 33.0375 73.563 33.0375C73.563 33.0375 74.8978 36.4485 74.1465 40.0994C73.7328 42.0977 71.7486 42.2236 71.7486 42.2236C71.7486 42.2236 71.1931 46.4699 69.6024 47.9027C67.9798 49.3634 65.5779 47.487 65.5779 47.487" stroke="#383838" stroke-width="1.44826" stroke-linecap="round" stroke-linejoin="round"/>
<path d="M63.0374 29.1016C63.1671 27.8934 62.518 26.833 61.5875 26.733C60.6569 26.6331 59.7974 27.5315 59.6677 28.7397C59.5379 29.9478 60.1871 31.0082 61.1176 31.1081C62.0481 31.208 62.9076 30.3097 63.0374 29.1016Z" fill="#383838"/>
<path d="M40.5068 26.6823C40.6365 25.4742 39.9874 24.4138 39.0569 24.3139C38.1263 24.2139 37.2668 25.1123 37.137 26.3204C37.0073 27.5286 37.6565 28.589 38.587 28.6889C39.5175 28.7889 40.377 27.8905 40.5068 26.6823Z" fill="#383838"/>
<path d="M48.8319 32.7017L46.4879 30.8453C46.2364 30.5361 46.1176 30.1397 46.1577 29.7431C46.1977 29.3464 46.3934 28.9818 46.7017 28.7291L49.5313 25.6998C49.8438 25.4526 50.2415 25.3393 50.6374 25.3846C51.0332 25.4299 51.395 25.6302 51.6435 25.9415L53.8096 29.5384C54.0616 29.8472 54.1806 30.2433 54.1405 30.6398C54.1004 31.0363 53.9045 31.4006 53.5958 31.6526L50.9441 32.9395C50.7898 33.0626 50.6127 33.1541 50.4231 33.2088C50.2334 33.2635 50.0349 33.2803 49.8387 33.2582C49.6426 33.2361 49.4527 33.1756 49.2799 33.0801C49.1072 32.9846 48.9549 32.8561 48.8319 32.7017Z" fill="#333333" stroke="#383838" stroke-width="1.44826" stroke-miterlimit="10"/>
<path d="M48.8781 10.8965C48.8781 10.8965 53.8098 8.89819 57.7065 10.8685C61.6031 12.8388 57.5547 15.3247 57.5547 15.3247C57.5547 15.3247 59.9686 15.8882 59.8527 16.7235C59.7368 17.5588 56.8172 17.6447 56.8172 17.6447" fill="#F9F9F9"/>
<path d="M48.8781 10.8965C48.8781 10.8965 53.8098 8.89819 57.7065 10.8685C61.6031 12.8388 57.5547 15.3247 57.5547 15.3247C57.5547 15.3247 59.9686 15.8882 59.8527 16.7235C59.7368 17.5588 56.8172 17.6447 56.8172 17.6447" stroke="#383838" stroke-width="1.44826" stroke-linecap="round" stroke-linejoin="round"/>
<path d="M41.3987 34.9618C41.3987 34.9618 43.407 36.9321 45.697 36.8801C47.987 36.8282 49.6416 34.9198 49.6416 34.9198C49.6416 34.9198 51.8397 37.7034 53.8759 37.9173C55.9122 38.1311 57.7166 36.4425 57.7166 36.4425" stroke="#383838" stroke-width="2.17238" stroke-linecap="round" stroke-linejoin="round"/>
<path d="M38.0472 52.9923C38.0472 52.9923 41.6441 55.9537 47.4751 56.3174C55.5362 56.821 61.8627 55.2763 61.8627 55.2763C61.8627 55.2763 66.9244 58.1499 70.1756 62.1384C73.4268 66.127 74.4219 72.1298 74.4219 72.1298C74.4219 72.1298 71.8861 73.5666 70.1756 74.0102C68.4651 74.4538 66.6886 74.8435 66.6886 74.8435L65.8413 68.7587L71.3886 105.287C71.3886 105.287 64.1528 107.148 51.7334 106.886C39.3141 106.624 34.2645 106.264 30.7215 105.645C27.1786 105.026 26.645 104.76 26.645 104.76C26.1874 105.117 27.4443 86.2717 28.4435 77.9149C28.8711 74.3799 29.9062 66.3528 29.9062 66.3528C29.9062 66.3528 25.0364 63.0277 24.6227 62.654C21.0638 59.4427 19.2993 57.1687 18.7858 55.9877C18.2382 54.7248 29.9062 48.4542 29.9062 48.4542C29.9062 48.4542 30.3818 48.628 33.1614 51.0659C37.2019 54.5909 38.0472 52.9923 38.0472 52.9923Z" fill="#337E8D" stroke="#383838" stroke-width="1.44826" stroke-linecap="round" stroke-linejoin="round"/>
<path d="M13.3342 32.3826C15.0137 31.8978 16.0411 30.347 15.6289 28.9187C15.2166 27.4904 13.5208 26.7256 11.8413 27.2104C10.1617 27.6951 9.13436 29.246 9.54661 30.6742C9.95886 32.1025 11.6546 32.8674 13.3342 32.3826Z" fill="#CEC9C6"/>
<path d="M7.14905 23.873L7.42624 25.9439C7.43127 25.9792 7.44534 26.0125 7.4669 26.0401C7.48845 26.0677 7.51672 26.0885 7.54866 26.1005C7.58059 26.1125 7.61497 26.1151 7.64819 26.108C7.68141 26.1009 7.71222 26.0844 7.73726 26.0604L8.93169 24.8716C8.95272 24.8506 8.96875 24.8247 8.97856 24.796C8.98838 24.7673 8.9917 24.7365 8.98819 24.7062C8.98468 24.6759 8.97445 24.6469 8.95837 24.6215C8.94229 24.5962 8.92079 24.5751 8.89559 24.5601L7.42398 23.6804C7.39415 23.6634 7.36051 23.6553 7.32665 23.6569C7.2928 23.6586 7.26003 23.6699 7.2318 23.6897C7.20357 23.7095 7.18095 23.737 7.16638 23.7692C7.15181 23.8015 7.14581 23.8374 7.14905 23.873Z" fill="#726765"/>
<path d="M11.6872 21.6357L10.8467 23.6767C10.8324 23.7116 10.8277 23.7498 10.8331 23.7873C10.8385 23.8247 10.8538 23.8599 10.8773 23.889C10.9008 23.9181 10.9316 23.94 10.9664 23.9524C11.0012 23.9647 11.0387 23.9669 11.0746 23.9589L12.8216 23.5633C12.8522 23.556 12.8808 23.5415 12.9051 23.521C12.9294 23.5004 12.9487 23.4743 12.9615 23.4447C12.9744 23.4152 12.9803 23.383 12.979 23.3506C12.9777 23.3183 12.9691 23.2867 12.9539 23.2584L12.0473 21.613C12.0288 21.5794 12.0014 21.5519 11.9683 21.5334C11.9353 21.515 11.8979 21.5065 11.8603 21.5089C11.8228 21.5112 11.7867 21.5244 11.7561 21.5468C11.7255 21.5692 11.7016 21.6 11.6872 21.6357Z" fill="#726765"/>
<path d="M16.8099 21.999L14.9196 23.1452C14.8875 23.1648 14.8614 23.1929 14.844 23.2265C14.8266 23.2601 14.8186 23.2978 14.821 23.3356C14.8233 23.3734 14.8358 23.4098 14.8572 23.4409C14.8786 23.472 14.9079 23.4967 14.9422 23.5121L16.6193 24.2535C16.6488 24.2664 16.6809 24.272 16.7129 24.2702C16.745 24.2683 16.7761 24.2588 16.8039 24.2426C16.8317 24.2264 16.8553 24.2038 16.8729 24.1767C16.8905 24.1496 16.9015 24.1187 16.9052 24.0865L17.1207 22.2014C17.1254 22.1628 17.1192 22.1236 17.1029 22.0883C17.0865 22.053 17.0606 22.0231 17.0281 22.0019C16.9957 21.9808 16.958 21.9693 16.9194 21.9688C16.8808 21.9683 16.8429 21.9788 16.8099 21.999Z" fill="#726765"/>
<path d="M5.09394 28.406L6.83683 29.6077C6.867 29.6277 6.90201 29.6392 6.9382 29.6409C6.9744 29.6426 7.01039 29.6346 7.04234 29.6176C7.0743 29.6005 7.10102 29.5752 7.11967 29.5443C7.13831 29.5133 7.14821 29.4779 7.14825 29.4418L7.13133 27.6897C7.1313 27.6587 7.1239 27.6282 7.10976 27.6005C7.09563 27.5729 7.07517 27.549 7.05 27.5307C7.02484 27.5124 6.99565 27.5003 6.9649 27.4954C6.93415 27.4905 6.90268 27.4928 6.87302 27.5023L5.14704 28.0479C5.10967 28.0578 5.07602 28.0783 5.05027 28.1071C5.02452 28.1358 5.00777 28.1714 5.00212 28.2095C4.99647 28.2476 5.00219 28.2865 5.0185 28.3214C5.03481 28.3563 5.06104 28.3857 5.09394 28.406Z" fill="#726765"/>
<path d="M46.4702 71.5284L44.322 69.7599L43.9944 69.4901C43.7685 69.3023 43.5947 68.9706 43.9743 68.7428C44.1422 68.6448 46.9938 67.0082 48.0449 66.4008C48.2271 66.2955 48.4338 66.2401 48.6443 66.2401C48.8548 66.2401 49.0615 66.2955 49.2438 66.4008L51.2581 67.5638C51.2942 67.5847 51.3242 67.6147 51.345 67.6508C51.3658 67.6869 51.3768 67.7279 51.3768 67.7696C51.3768 67.8113 51.3658 67.8523 51.345 67.8884C51.3242 67.9245 51.2942 67.9545 51.2581 67.9754L46.5442 70.6791C46.4712 70.7205 46.4094 70.779 46.3641 70.8496C46.3188 70.9202 46.2913 71.0008 46.284 71.0843C46.2768 71.1679 46.2899 71.2519 46.3223 71.3293C46.3548 71.4067 46.4055 71.475 46.4702 71.5284Z" fill="white"/>
<path d="M47.6473 73.4447L45.7249 76.3722C45.6581 76.4741 45.5548 76.5465 45.4363 76.5747C45.3178 76.603 45.193 76.5849 45.0875 76.5241L43.8165 75.7887C43.635 75.6839 43.4841 75.5334 43.379 75.3521C43.2738 75.1709 43.218 74.9652 43.217 74.7556V69.8718C43.2177 69.6864 43.2613 69.5036 43.3445 69.3378C43.4277 69.1721 43.5483 69.0279 43.6967 68.9166C43.355 69.1804 43.4968 69.4762 43.7166 69.664L47.5474 72.8193C47.6383 72.8928 47.6988 72.9974 47.7172 73.1128C47.7357 73.2283 47.7108 73.3465 47.6473 73.4447Z" fill="white"/>
<path d="M50.8179 73.091L52.964 74.8595L53.2918 75.1273C53.5176 75.3151 53.6915 75.6468 53.3118 75.8747C53.1439 75.9726 50.2923 77.6092 49.2413 78.2166C49.059 78.3219 48.8522 78.3773 48.6418 78.3773C48.4313 78.3773 48.2245 78.3219 48.0423 78.2166L46.028 77.0536C45.9919 77.0328 45.9619 77.0027 45.9411 76.9666C45.9203 76.9305 45.9093 76.8895 45.9093 76.8478C45.9093 76.8061 45.9203 76.7651 45.9411 76.729C45.9619 76.6929 45.9919 76.6629 46.028 76.642L50.7419 73.9383C50.8146 73.897 50.8762 73.8387 50.9214 73.7684C50.9667 73.6981 50.9942 73.6178 51.0017 73.5345C51.0091 73.4513 50.9963 73.3674 50.9643 73.2902C50.9323 73.213 50.8821 73.1446 50.8179 73.091Z" fill="white"/>
<path d="M49.6395 71.1767L51.5599 68.2512C51.6264 68.1495 51.7292 68.0771 51.8474 68.0489C51.9655 68.0206 52.09 68.0387 52.1953 68.0993L53.4663 68.8347C53.6481 68.9396 53.7991 69.0905 53.9043 69.2721C54.0095 69.4538 54.0652 69.6599 54.0658 69.8698V74.7516C54.0651 74.9371 54.0214 75.1198 53.9382 75.2856C53.855 75.4513 53.7345 75.5955 53.5861 75.7068C53.9278 75.443 53.786 75.1493 53.5662 74.9594L49.7354 71.8041C49.645 71.7297 49.5852 71.6245 49.5675 71.5087C49.5498 71.3929 49.5754 71.2747 49.6395 71.1767Z" fill="white"/>
</g>
</svg>
